<svg width="28" height="29" viewBox="0 0 28 29" fill="none" xmlns="http://www.w3.org/2000/svg">
<g filter="url(#filter0_d_13573_68)">
<path d="M13.9917 24.3311C12.8019 24.3311 11.6675 24.1484 10.5884 23.7832C9.50928 23.418 8.51872 22.9033 7.6167 22.2393C6.71468 21.5807 5.93164 20.8005 5.26758 19.8984C4.60905 18.9964 4.09717 18.0059 3.73193 16.9268C3.3667 15.8477 3.18408 14.7132 3.18408 13.5234C3.18408 12.3281 3.3667 11.1909 3.73193 10.1118C4.09717 9.03271 4.60905 8.04492 5.26758 7.14844C5.93164 6.24642 6.71468 5.46338 7.6167 4.79932C8.51872 4.13525 9.50928 3.62061 10.5884 3.25537C11.6675 2.89014 12.8019 2.70752 13.9917 2.70752C15.187 2.70752 16.3242 2.89014 17.4033 3.25537C18.4824 3.62061 19.4702 4.13525 20.3667 4.79932C21.2687 5.46338 22.0518 6.24642 22.7158 7.14844C23.3799 8.04492 23.8945 9.03271 24.2598 10.1118C24.625 11.1909 24.8076 12.3281 24.8076 13.5234C24.8076 14.7132 24.625 15.8477 24.2598 16.9268C23.8945 18.0059 23.3799 18.9964 22.7158 19.8984C22.0518 20.8005 21.2687 21.5807 20.3667 22.2393C19.4702 22.9033 18.4824 23.418 17.4033 23.7832C16.3242 24.1484 15.187 24.3311 13.9917 24.3311ZM14 19.6909C14.0719 19.6909 14.1439 19.6882 14.2158 19.6826C14.2878 19.6826 14.3569 19.6771 14.4233 19.666L14.7222 20.2471C14.8328 20.4408 14.9989 20.521 15.2202 20.4878C15.4582 20.4435 15.591 20.3079 15.6187 20.0811L15.6934 19.4502C15.8317 19.4115 15.9673 19.3672 16.1001 19.3174C16.2384 19.2676 16.374 19.2122 16.5068 19.1514L16.98 19.5996C17.146 19.749 17.3286 19.7656 17.5278 19.6494C17.7326 19.5277 17.8101 19.3561 17.7603 19.1348L17.6108 18.5039C17.7271 18.4264 17.8405 18.3407 17.9512 18.2466C18.0674 18.1525 18.1753 18.0584 18.2749 17.9644L18.8809 18.2051C19.0911 18.2936 19.2682 18.2493 19.4121 18.0723C19.484 17.9893 19.5228 17.8979 19.5283 17.7983C19.5394 17.6932 19.5173 17.5964 19.4619 17.5078L19.105 16.9683C19.188 16.8521 19.2655 16.7331 19.3374 16.6113C19.4093 16.4896 19.4785 16.3595 19.5449 16.2212L20.1841 16.2544C20.4165 16.2655 20.5687 16.1603 20.6406 15.939C20.7181 15.7287 20.6683 15.5488 20.4912 15.3994L19.9766 15.0093C20.0098 14.8709 20.0374 14.7326 20.0596 14.5942C20.0872 14.4559 20.1066 14.3148 20.1177 14.1709L20.7402 13.9717C20.9561 13.8997 21.064 13.7503 21.064 13.5234C21.064 13.2855 20.9561 13.1361 20.7402 13.0752L20.1177 12.876C20.1066 12.7321 20.0872 12.591 20.0596 12.4526C20.0374 12.3088 20.0098 12.1676 19.9766 12.0293L20.4995 11.6475C20.6545 11.5036 20.7043 11.3265 20.6489 11.1162C20.6157 11.0111 20.5576 10.9281 20.4746 10.8672C20.3916 10.8063 20.292 10.7759 20.1758 10.7759L19.5449 10.8257C19.4176 10.5767 19.2738 10.3249 19.1133 10.0703L19.4702 9.54736C19.5698 9.34261 19.5588 9.15446 19.437 8.98291C19.3595 8.8999 19.271 8.84456 19.1714 8.81689C19.0773 8.78923 18.9749 8.79199 18.8643 8.8252L18.2832 9.09082C18.1836 8.99121 18.0757 8.89714 17.9595 8.80859C17.8488 8.71452 17.7354 8.62321 17.6191 8.53467L17.7686 7.91211C17.8018 7.69076 17.7271 7.51921 17.5444 7.39746C17.4504 7.34766 17.3507 7.32552 17.2456 7.33105C17.146 7.33105 17.0547 7.36979 16.9717 7.44727L16.5151 7.88721C16.3823 7.83187 16.2467 7.7793 16.1084 7.72949C15.9756 7.67415 15.8372 7.62988 15.6934 7.59668L15.627 6.95752C15.5827 6.73617 15.4526 6.60335 15.2368 6.55908C15.1261 6.54248 15.0265 6.55355 14.938 6.59229C14.8494 6.62549 14.7747 6.69466 14.7139 6.7998L14.4316 7.37256C14.3652 7.36702 14.2933 7.36426 14.2158 7.36426C14.1439 7.35872 14.0719 7.35596 14 7.35596C13.9281 7.35596 13.8561 7.35872 13.7842 7.36426C13.7122 7.36426 13.6403 7.36702 13.5684 7.37256L13.2778 6.7998C13.1727 6.60612 13.0067 6.52588 12.7798 6.55908C12.5363 6.60335 12.4035 6.73617 12.3813 6.95752L12.3066 7.59668C12.1628 7.63542 12.0216 7.67969 11.8833 7.72949C11.7505 7.7793 11.6177 7.83187 11.4849 7.88721L11.0283 7.44727C10.8568 7.29785 10.6714 7.27848 10.4722 7.38916C10.2619 7.51644 10.1816 7.68799 10.2314 7.90381L10.3809 8.53467C10.1374 8.70622 9.91602 8.88883 9.7168 9.08252L9.11914 8.8335C8.91439 8.75049 8.73454 8.79753 8.57959 8.97461C8.51318 9.05208 8.47445 9.14339 8.46338 9.24854C8.45231 9.34814 8.47721 9.44499 8.53809 9.53906L8.88672 10.0786C8.80924 10.1948 8.73177 10.3138 8.6543 10.4355C8.58236 10.5573 8.51318 10.6846 8.44678 10.8174L7.81592 10.7842C7.5835 10.7786 7.42855 10.8838 7.35107 11.0996C7.27913 11.321 7.32894 11.5008 7.50049 11.6392L8.01514 12.0293C7.94873 12.306 7.90169 12.5882 7.87402 12.876L7.25146 13.0752C7.03564 13.1361 6.92773 13.2855 6.92773 13.5234C6.92773 13.7503 7.03564 13.8997 7.25146 13.9717L7.87402 14.1709C7.89062 14.3148 7.90999 14.4559 7.93213 14.5942C7.95426 14.7326 7.98193 14.8709 8.01514 15.0093L7.50049 15.4077C7.3234 15.5516 7.27083 15.7259 7.34277 15.9307C7.38704 16.0303 7.44792 16.1133 7.52539 16.1797C7.6084 16.2406 7.70801 16.2682 7.82422 16.2627L8.44678 16.2129C8.51318 16.3402 8.58236 16.4702 8.6543 16.603C8.73177 16.7303 8.81201 16.8521 8.89502 16.9683L8.52979 17.5078C8.40804 17.7015 8.41911 17.8841 8.56299 18.0557C8.73454 18.2383 8.92269 18.2881 9.12744 18.2051L9.7085 17.9478C9.81364 18.0474 9.92155 18.147 10.0322 18.2466C10.1429 18.3407 10.2591 18.4264 10.3809 18.5039L10.2314 19.1431C10.1816 19.3589 10.2536 19.5277 10.4473 19.6494C10.6686 19.7601 10.8623 19.7407 11.0283 19.5913L11.4849 19.1514C11.6177 19.2122 11.7505 19.2676 11.8833 19.3174C12.0161 19.3672 12.1545 19.4115 12.2983 19.4502L12.3813 20.0894C12.4035 20.3052 12.528 20.438 12.7549 20.4878C12.9928 20.521 13.1672 20.438 13.2778 20.2388L13.5684 19.666C13.6348 19.6771 13.7039 19.6826 13.7759 19.6826C13.8534 19.6882 13.9281 19.6909 14 19.6909ZM11.875 8.9082C12.196 8.75879 12.5363 8.64258 12.896 8.55957C13.2557 8.47656 13.6237 8.43506 14 8.43506C14.6585 8.43506 15.2783 8.55404 15.8594 8.79199C16.4404 9.02441 16.9578 9.34814 17.4116 9.76318C17.8709 10.1782 18.2417 10.6624 18.5239 11.2158C18.8117 11.7692 18.986 12.3696 19.0469 13.0171H15.6104C15.5052 12.674 15.3032 12.389 15.0044 12.1621C14.7111 11.9352 14.3763 11.8218 14 11.8218C13.8838 11.8218 13.7565 11.8384 13.6182 11.8716L11.875 8.9082ZM8.91162 13.5234C8.91162 12.6768 9.10254 11.8965 9.48438 11.1826C9.87174 10.4632 10.3781 9.87386 11.0034 9.41455L12.7466 12.3779C12.4478 12.7044 12.2983 13.0863 12.2983 13.5234C12.2983 13.9717 12.4533 14.3563 12.7632 14.6772L10.9785 17.5991C10.3477 17.1398 9.84408 16.556 9.46777 15.8477C9.09701 15.1338 8.91162 14.359 8.91162 13.5234ZM11.8418 18.1221L13.6348 15.1753C13.7565 15.203 13.8783 15.2168 14 15.2168C14.3818 15.2168 14.7194 15.1034 15.0127 14.8765C15.3115 14.6496 15.5163 14.3618 15.627 14.0132H19.0469C18.9915 14.6551 18.82 15.2555 18.5322 15.8145C18.25 16.3678 17.8792 16.8548 17.4199 17.2754C16.9661 17.6904 16.446 18.0169 15.8594 18.2549C15.2783 18.4873 14.6585 18.6035 14 18.6035C13.2419 18.6035 12.5225 18.443 11.8418 18.1221ZM13.3027 13.5234C13.3027 13.3298 13.3691 13.1665 13.502 13.0337C13.6403 12.8953 13.8063 12.8262 14 12.8262C14.1882 12.8262 14.3486 12.8953 14.4814 13.0337C14.6198 13.1665 14.689 13.3298 14.689 13.5234C14.689 13.7116 14.6198 13.8748 14.4814 14.0132C14.3486 14.146 14.1882 14.2124 14 14.2124C13.8063 14.2124 13.6403 14.146 13.502 14.0132C13.3691 13.8748 13.3027 13.7116 13.3027 13.5234Z" fill="#FF453A"/>
</g>
<defs>
<filter id="filter0_d_13573_68" x="0.183594" y="0.70752" width="27.624" height="27.6235" filterUnits="userSpaceOnUse" color-interpolation-filters="sRGB">
<feFlood flood-opacity="0" result="BackgroundImageFix"/>
<feColorMatrix in="SourceAlpha" type="matrix" values="0 0 0 0 0 0 0 0 0 0 0 0 0 0 0 0 0 0 127 0" result="hardAlpha"/>
<feOffset dy="1"/>
<feGaussianBlur stdDeviation="1.5"/>
<feComposite in2="hardAlpha" operator="out"/>
<feColorMatrix type="matrix" values="0 0 0 0 0 0 0 0 0 0.528988 0 0 0 0 0.317393 0 0 0 0.15 0"/>
<feBlend mode="normal" in2="BackgroundImageFix" result="effect1_dropShadow_13573_68"/>
<feBlend mode="normal" in="SourceGraphic" in2="effect1_dropShadow_13573_68" result="shape"/>
</filter>
</defs>
</svg>
