<svg width="28" height="29" viewBox="0 0 28 29" fill="none" xmlns="http://www.w3.org/2000/svg">
<g filter="url(#filter0_d_13573_596)">
<path d="M13.9917 24.3311C12.8019 24.3311 11.6675 24.1484 10.5884 23.7832C9.50928 23.418 8.51872 22.9033 7.6167 22.2393C6.71468 21.5807 5.93164 20.8005 5.26758 19.8984C4.60905 18.9964 4.09717 18.0059 3.73193 16.9268C3.3667 15.8477 3.18408 14.7132 3.18408 13.5234C3.18408 12.3281 3.3667 11.1909 3.73193 10.1118C4.09717 9.03271 4.60905 8.04492 5.26758 7.14844C5.93164 6.24642 6.71468 5.46338 7.6167 4.79932C8.51872 4.13525 9.50928 3.62061 10.5884 3.25537C11.6675 2.89014 12.8019 2.70752 13.9917 2.70752C15.187 2.70752 16.3242 2.89014 17.4033 3.25537C18.4824 3.62061 19.4702 4.13525 20.3667 4.79932C21.2687 5.46338 22.0518 6.24642 22.7158 7.14844C23.3799 8.04492 23.8945 9.03271 24.2598 10.1118C24.625 11.1909 24.8076 12.3281 24.8076 13.5234C24.8076 14.7132 24.625 15.8477 24.2598 16.9268C23.8945 18.0059 23.3799 18.9964 22.7158 19.8984C22.0518 20.8005 21.2687 21.5807 20.3667 22.2393C19.4702 22.9033 18.4824 23.418 17.4033 23.7832C16.3242 24.1484 15.187 24.3311 13.9917 24.3311ZM11.02 8.80859C10.4445 8.80859 9.88281 8.93311 9.33496 9.18213C8.79264 9.42562 8.3859 9.77425 8.11475 10.228C8.08708 10.2778 8.06771 10.3249 8.05664 10.3691C8.05111 10.4079 8.04834 10.4715 8.04834 10.5601V17.9229C8.04834 18.1387 8.16732 18.2466 8.40527 18.2466C8.46615 18.2466 8.52148 18.2383 8.57129 18.2217C8.62663 18.2051 8.67643 18.1746 8.7207 18.1304C9.36816 17.5549 10.1816 17.2671 11.1611 17.2671C11.5485 17.2671 11.922 17.3335 12.2817 17.4663C12.647 17.5936 12.9845 17.7845 13.2944 18.0391C13.3553 18.0944 13.4106 18.1221 13.4604 18.1221C13.5933 18.1221 13.6597 18.0529 13.6597 17.9146V10.2363C13.6597 10.1312 13.6265 10.0343 13.5601 9.9458C13.2834 9.5861 12.9209 9.30664 12.4727 9.10742C12.0299 8.9082 11.5457 8.80859 11.02 8.80859ZM16.98 8.80859C16.4598 8.80859 15.9756 8.9082 15.5273 9.10742C15.0791 9.30664 14.7166 9.5861 14.4399 9.9458C14.3791 10.0343 14.3486 10.1312 14.3486 10.2363V17.9146C14.3486 18.0529 14.4123 18.1221 14.5396 18.1221C14.5728 18.1221 14.6032 18.1165 14.6309 18.1055C14.6585 18.0889 14.6862 18.0667 14.7139 18.0391C15.0238 17.7845 15.3586 17.5936 15.7183 17.4663C16.0835 17.3335 16.4598 17.2671 16.8472 17.2671C17.8322 17.2671 18.6429 17.5549 19.2793 18.1304C19.3291 18.1746 19.3789 18.2051 19.4287 18.2217C19.484 18.2383 19.5422 18.2466 19.603 18.2466C19.8354 18.2466 19.9517 18.1387 19.9517 17.9229V10.5601C19.9517 10.4715 19.9461 10.4051 19.9351 10.3608C19.9295 10.3166 19.9129 10.2723 19.8853 10.228C19.6196 9.77425 19.2129 9.42562 18.665 9.18213C18.1172 8.93311 17.5555 8.80859 16.98 8.80859Z" fill="#FF453A"/>
</g>
<defs>
<filter id="filter0_d_13573_596" x="0.183594" y="0.70752" width="27.624" height="27.6235" filterUnits="userSpaceOnUse" color-interpolation-filters="sRGB">
<feFlood flood-opacity="0" result="BackgroundImageFix"/>
<feColorMatrix in="SourceAlpha" type="matrix" values="0 0 0 0 0 0 0 0 0 0 0 0 0 0 0 0 0 0 127 0" result="hardAlpha"/>
<feOffset dy="1"/>
<feGaussianBlur stdDeviation="1.5"/>
<feComposite in2="hardAlpha" operator="out"/>
<feColorMatrix type="matrix" values="0 0 0 0 0 0 0 0 0 0.528988 0 0 0 0 0.317393 0 0 0 0.15 0"/>
<feBlend mode="normal" in2="BackgroundImageFix" result="effect1_dropShadow_13573_596"/>
<feBlend mode="normal" in="SourceGraphic" in2="effect1_dropShadow_13573_596" result="shape"/>
</filter>
</defs>
</svg>
