<svg width="28" height="29" viewBox="0 0 28 29" fill="none" xmlns="http://www.w3.org/2000/svg">
<g filter="url(#filter0_d_13573_122)">
<path d="M13.9917 24.3145C12.8019 24.3145 11.6675 24.1318 10.5884 23.7666C9.50928 23.4014 8.51872 22.8867 7.6167 22.2227C6.71468 21.5641 5.93164 20.7839 5.26758 19.8818C4.60905 18.9798 4.09717 17.9893 3.73193 16.9102C3.3667 15.8311 3.18408 14.6966 3.18408 13.5068C3.18408 12.3115 3.3667 11.1743 3.73193 10.0952C4.09717 9.01611 4.60905 8.02832 5.26758 7.13184C5.93164 6.22982 6.71468 5.44678 7.6167 4.78271C8.51872 4.11865 9.50928 3.604 10.5884 3.23877C11.6675 2.87354 12.8019 2.69092 13.9917 2.69092C15.187 2.69092 16.3242 2.87354 17.4033 3.23877C18.4824 3.604 19.4702 4.11865 20.3667 4.78271C21.2687 5.44678 22.0518 6.22982 22.7158 7.13184C23.3799 8.02832 23.8945 9.01611 24.2598 10.0952C24.625 11.1743 24.8076 12.3115 24.8076 13.5068C24.8076 14.6966 24.625 15.8311 24.2598 16.9102C23.8945 17.9893 23.3799 18.9798 22.7158 19.8818C22.0518 20.7839 21.2687 21.5641 20.3667 22.2227C19.4702 22.8867 18.4824 23.4014 17.4033 23.7666C16.3242 24.1318 15.187 24.3145 13.9917 24.3145ZM13.9917 9.33154C14.202 9.33154 14.3763 9.26237 14.5146 9.12402C14.6585 8.98568 14.7305 8.81136 14.7305 8.60107C14.7305 8.39079 14.6585 8.21647 14.5146 8.07812C14.3763 7.93978 14.202 7.87061 13.9917 7.87061C13.7869 7.87061 13.6126 7.93978 13.4688 8.07812C13.3304 8.21647 13.2612 8.39079 13.2612 8.60107C13.2612 8.81136 13.3304 8.98568 13.4688 9.12402C13.6126 9.26237 13.7869 9.33154 13.9917 9.33154ZM16.457 9.99561C16.6673 9.99561 16.8416 9.92643 16.98 9.78809C17.1183 9.64421 17.1875 9.46712 17.1875 9.25684C17.1875 9.04655 17.1183 8.87223 16.98 8.73389C16.8416 8.59001 16.6673 8.51807 16.457 8.51807C16.2467 8.51807 16.0724 8.59001 15.9341 8.73389C15.7957 8.87223 15.7266 9.04655 15.7266 9.25684C15.7266 9.46712 15.7957 9.64421 15.9341 9.78809C16.0724 9.92643 16.2467 9.99561 16.457 9.99561ZM18.25 11.7886C18.4658 11.7886 18.6429 11.7194 18.7812 11.5811C18.9196 11.4427 18.9888 11.2684 18.9888 11.0581C18.9888 10.8478 18.9196 10.6735 18.7812 10.5352C18.6429 10.3968 18.4658 10.3276 18.25 10.3276C18.0397 10.3276 17.8654 10.3968 17.7271 10.5352C17.5887 10.6735 17.5195 10.8478 17.5195 11.0581C17.5195 11.2684 17.5887 11.4427 17.7271 11.5811C17.8654 11.7194 18.0397 11.7886 18.25 11.7886ZM18.9141 14.2456C19.1188 14.2456 19.2904 14.1764 19.4287 14.0381C19.5726 13.8997 19.6445 13.7254 19.6445 13.5151C19.6445 13.3104 19.5726 13.1388 19.4287 13.0005C19.2904 12.8566 19.1188 12.7847 18.9141 12.7847C18.7038 12.7847 18.5295 12.8566 18.3911 13.0005C18.2528 13.1388 18.1836 13.3104 18.1836 13.5151C18.1836 13.7254 18.2528 13.8997 18.3911 14.0381C18.5295 14.1764 18.7038 14.2456 18.9141 14.2456ZM18.25 16.7109C18.4658 16.7109 18.6429 16.6418 18.7812 16.5034C18.9196 16.3595 18.9888 16.1852 18.9888 15.9805C18.9888 15.7702 18.9196 15.5959 18.7812 15.4575C18.6429 15.3192 18.4658 15.25 18.25 15.25C18.0397 15.25 17.8654 15.3192 17.7271 15.4575C17.5887 15.5959 17.5195 15.7702 17.5195 15.9805C17.5195 16.1852 17.5887 16.3595 17.7271 16.5034C17.8654 16.6418 18.0397 16.7109 18.25 16.7109ZM16.457 18.5122C16.6673 18.5122 16.8416 18.443 16.98 18.3047C17.1183 18.1663 17.1875 17.9893 17.1875 17.7734C17.1875 17.5632 17.1183 17.3888 16.98 17.2505C16.8416 17.1121 16.6673 17.043 16.457 17.043C16.2467 17.043 16.0724 17.1121 15.9341 17.2505C15.7957 17.3888 15.7266 17.5632 15.7266 17.7734C15.7266 17.9893 15.7957 18.1663 15.9341 18.3047C16.0724 18.443 16.2467 18.5122 16.457 18.5122ZM13.9917 19.168C14.202 19.168 14.3763 19.0988 14.5146 18.9604C14.6585 18.8166 14.7305 18.6423 14.7305 18.4375C14.7305 18.2272 14.6585 18.0529 14.5146 17.9146C14.3763 17.7707 14.202 17.6987 13.9917 17.6987C13.7869 17.6987 13.6126 17.7707 13.4688 17.9146C13.3304 18.0529 13.2612 18.2272 13.2612 18.4375C13.2612 18.6423 13.3304 18.8166 13.4688 18.9604C13.6126 19.0988 13.7869 19.168 13.9917 19.168ZM11.5347 18.5122C11.745 18.5122 11.9193 18.443 12.0576 18.3047C12.196 18.1663 12.2651 17.9893 12.2651 17.7734C12.2651 17.5632 12.196 17.3888 12.0576 17.2505C11.9193 17.1121 11.745 17.043 11.5347 17.043C11.3244 17.043 11.1501 17.1121 11.0117 17.2505C10.8734 17.3888 10.8042 17.5632 10.8042 17.7734C10.8042 17.9893 10.8734 18.1663 11.0117 18.3047C11.1501 18.443 11.3244 18.5122 11.5347 18.5122ZM9.7417 16.7109C9.94645 16.7109 10.118 16.6418 10.2563 16.5034C10.4002 16.3595 10.4722 16.1852 10.4722 15.9805C10.4722 15.7702 10.4002 15.5959 10.2563 15.4575C10.118 15.3192 9.94645 15.25 9.7417 15.25C9.52588 15.25 9.34603 15.3192 9.20215 15.4575C9.0638 15.5959 8.99463 15.7702 8.99463 15.9805C8.99463 16.1852 9.0638 16.3595 9.20215 16.5034C9.34603 16.6418 9.52588 16.7109 9.7417 16.7109ZM9.07764 14.2456C9.28792 14.2456 9.46224 14.1764 9.60059 14.0381C9.73893 13.8997 9.80811 13.7254 9.80811 13.5151C9.80811 13.3104 9.73893 13.1388 9.60059 13.0005C9.46224 12.8566 9.28792 12.7847 9.07764 12.7847C8.86735 12.7847 8.69303 12.8566 8.55469 13.0005C8.41634 13.1388 8.34717 13.3104 8.34717 13.5151C8.34717 13.7254 8.41634 13.8997 8.55469 14.0381C8.69303 14.1764 8.86735 14.2456 9.07764 14.2456ZM9.7417 11.7886C9.94645 11.7886 10.118 11.7194 10.2563 11.5811C10.4002 11.4427 10.4722 11.2684 10.4722 11.0581C10.4722 10.8478 10.4002 10.6735 10.2563 10.5352C10.118 10.3968 9.94645 10.3276 9.7417 10.3276C9.52588 10.3276 9.34603 10.3968 9.20215 10.5352C9.0638 10.6735 8.99463 10.8478 8.99463 11.0581C8.99463 11.2684 9.0638 11.4427 9.20215 11.5811C9.34603 11.7194 9.52588 11.7886 9.7417 11.7886ZM11.5347 9.99561C11.745 9.99561 11.9193 9.92643 12.0576 9.78809C12.196 9.64421 12.2651 9.46712 12.2651 9.25684C12.2651 9.04655 12.196 8.87223 12.0576 8.73389C11.9193 8.59001 11.745 8.51807 11.5347 8.51807C11.3244 8.51807 11.1501 8.59001 11.0117 8.73389C10.8734 8.87223 10.8042 9.04655 10.8042 9.25684C10.8042 9.46712 10.8734 9.64421 11.0117 9.78809C11.1501 9.92643 11.3244 9.99561 11.5347 9.99561Z" fill="#FF453A"/>
</g>
<defs>
<filter id="filter0_d_13573_122" x="0.183594" y="0.690918" width="27.624" height="27.6235" filterUnits="userSpaceOnUse" color-interpolation-filters="sRGB">
<feFlood flood-opacity="0" result="BackgroundImageFix"/>
<feColorMatrix in="SourceAlpha" type="matrix" values="0 0 0 0 0 0 0 0 0 0 0 0 0 0 0 0 0 0 127 0" result="hardAlpha"/>
<feOffset dy="1"/>
<feGaussianBlur stdDeviation="1.5"/>
<feComposite in2="hardAlpha" operator="out"/>
<feColorMatrix type="matrix" values="0 0 0 0 0 0 0 0 0 0.528988 0 0 0 0 0.317393 0 0 0 0.15 0"/>
<feBlend mode="normal" in2="BackgroundImageFix" result="effect1_dropShadow_13573_122"/>
<feBlend mode="normal" in="SourceGraphic" in2="effect1_dropShadow_13573_122" result="shape"/>
</filter>
</defs>
</svg>
